<?xml version="1.0" standalone="no"?>
<!DOCTYPE svg PUBLIC "-//W3C//DTD SVG 20010904//EN"
 "http://www.w3.org/TR/2001/REC-SVG-20010904/DTD/svg10.dtd">
<svg version="1.0" xmlns="http://www.w3.org/2000/svg"
 width="600.000000pt" height="607.000000pt" viewBox="0 0 600.000000 607.000000"
 preserveAspectRatio="xMidYMid meet">
<metadata>
Created by potrace 1.16, written by Peter Selinger 2001-2019
</metadata>
<g transform="translate(0.000000,607.000000) scale(0.100000,-0.100000)"
fill="#000000" stroke="none">
<path d="M2740 5685 c-315 -32 -572 -102 -857 -232 -807 -369 -1378 -1125
-1519 -2013 -25 -160 -30 -530 -10 -699 61 -499 244 -944 550 -1335 89 -114
312 -341 421 -427 145 -115 369 -257 505 -321 137 -64 192 -86 320 -128 298
-99 526 -135 850 -135 252 1 472 30 695 91 205 57 485 178 673 291 84 51 91
55 237 163 110 81 386 351 456 445 24 33 47 62 50 65 3 3 40 55 82 115 177
259 331 619 392 919 41 199 47 257 52 506 5 226 3 272 -17 410 -92 652 -404
1226 -899 1653 -544 471 -1274 704 -1981 632z m567 -140 c460 -61 882 -238
1243 -523 111 -87 332 -306 411 -407 195 -247 358 -559 447 -855 88 -290 121
-638 92 -955 -59 -638 -371 -1244 -855 -1660 -39 -33 -72 -62 -75 -66 -10 -12
-186 -135 -250 -176 -271 -169 -611 -296 -930 -347 -110 -18 -349 -34 -436
-30 -320 16 -416 30 -653 96 -298 83 -631 253 -871 445 -117 94 -301 274 -388
380 -74 90 -203 279 -257 375 -102 184 -216 485 -256 675 -53 256 -72 542 -50
773 83 857 587 1611 1343 2005 285 148 609 247 918 278 106 11 459 6 567 -8z"/>
<path d="M3017 5418 c-3 -7 -35 -82 -70 -165 l-65 -153 32 0 c17 0 41 -3 54
-6 19 -5 23 -2 28 25 6 27 11 31 39 31 63 0 93 -11 99 -36 5 -18 14 -24 34
-25 15 0 37 -2 50 -3 12 -2 22 2 22 8 0 6 -23 84 -52 174 l-52 162 -57 0 c-36
0 -59 -5 -62 -12z"/>
<path d="M2685 5415 c-5 -2 -27 -6 -47 -10 l-38 -6 -1 -52 c0 -29 -4 -74 -7
-102 l-7 -50 -44 93 c-29 61 -50 92 -60 91 -38 -2 -116 -26 -115 -35 1 -5 14
-78 30 -161 l28 -153 33 0 c52 0 52 4 13 202 -4 21 -4 36 0 33 4 -2 29 -51 55
-109 48 -104 49 -105 79 -99 17 3 34 9 38 12 4 4 10 57 14 119 4 61 10 112 13
112 4 0 15 -47 25 -105 11 -58 22 -108 26 -110 4 -2 23 -2 44 2 27 4 35 10 32
22 -2 9 -17 82 -31 164 -25 136 -29 147 -49 146 -11 0 -25 -2 -31 -4z"/>
<path d="M3405 5378 c-7 -20 -74 -313 -72 -314 23 -11 251 -54 257 -48 4 5 11
23 14 40 l7 30 -81 18 c-65 15 -80 22 -76 35 3 9 15 57 26 106 11 50 23 98 26
107 8 26 -92 52 -101 26z"/>
<path d="M2023 5230 c-51 -22 -97 -40 -103 -40 -5 0 -10 -4 -10 -9 0 -12 120
-295 129 -304 12 -12 94 32 88 46 -3 7 -14 36 -26 65 l-21 52 25 0 c13 0 41
-14 62 -32 21 -18 45 -38 53 -45 13 -10 25 -8 69 12 l53 25 -55 45 c-31 25
-63 45 -71 45 -20 0 -20 9 -1 34 8 11 15 37 15 57 0 29 -7 43 -31 63 -41 35
-68 33 -176 -14z"/>
<path d="M3987 5087 c-30 -56 -58 -112 -62 -125 -32 -108 159 -230 255 -162
24 17 140 202 140 223 0 9 -62 47 -76 47 -7 0 -36 -42 -65 -94 -58 -102 -81
-122 -120 -102 -49 24 -46 52 17 160 64 109 64 104 -7 141 l-26 14 -56 -102z"/>
<path d="M1648 5025 c-103 -38 -154 -142 -113 -229 53 -110 154 -148 249 -92
110 65 130 165 51 262 -58 70 -111 87 -187 59z m80 -91 c32 -22 65 -91 58
-120 -4 -13 -20 -31 -36 -39 -26 -13 -35 -14 -57 -3 -36 17 -73 73 -73 109 0
57 60 87 108 53z"/>
<path d="M2693 4944 c-593 -86 -1110 -448 -1400 -979 -163 -297 -236 -601
-228 -950 5 -231 39 -420 112 -615 37 -101 135 -304 159 -331 8 -8 14 -19 14
-22 0 -4 23 -40 52 -80 321 -448 775 -727 1301 -802 133 -19 414 -19 540 0
405 61 759 234 1051 515 292 281 478 623 556 1025 31 157 38 438 16 599 -78
556 -375 1029 -848 1349 -208 140 -503 251 -775 292 -127 19 -420 18 -550 -1z
m409 -74 c254 -21 469 -80 688 -190 131 -65 169 -89 294 -183 148 -112 334
-316 434 -477 26 -42 130 -250 153 -305 30 -72 68 -202 90 -307 30 -144 38
-480 15 -618 -38 -219 -88 -374 -179 -555 -108 -217 -256 -406 -437 -559 -197
-166 -377 -268 -611 -347 -376 -126 -761 -128 -1144 -4 -218 70 -473 216 -637
364 -77 69 -225 230 -264 286 -80 116 -109 164 -162 270 -208 415 -249 880
-118 1330 185 633 731 1133 1384 1265 184 37 311 45 494 30z"/>
<path d="M2909 4716 c-134 -48 -210 -206 -235 -488 -3 -43 -11 -81 -18 -86 -6
-5 -38 -14 -71 -21 -90 -19 -284 -80 -336 -107 l-46 -23 -7 -103 c-3 -57 -11
-159 -16 -228 -6 -69 -24 -314 -40 -545 -16 -231 -34 -483 -40 -560 -24 -319
-31 -418 -50 -685 -11 -157 -13 -189 -11 -207 1 -7 43 8 104 36 171 80 315
124 513 158 167 27 486 25 659 -6 171 -30 343 -80 483 -140 l113 -49 -5 52
c-3 28 -10 119 -16 201 -12 181 -73 1052 -96 1365 -8 124 -23 332 -32 464
l-17 239 -75 38 c-80 41 -259 104 -325 114 -22 3 -46 10 -53 14 -8 5 -16 49
-22 122 -10 119 -37 245 -66 301 -65 129 -181 185 -295 144z m166 -55 c86 -49
154 -243 155 -440 l0 -64 -50 5 c-28 3 -52 7 -55 10 -2 2 -7 46 -10 98 -9 167
-36 256 -91 299 -90 71 -161 -38 -185 -287 -6 -64 -12 -118 -13 -119 0 0 -27
-4 -58 -8 l-58 -7 6 63 c19 223 73 373 157 439 52 41 142 46 202 11z m-84
-121 c46 -25 79 -140 79 -280 l0 -90 -95 0 -95 0 0 58 c0 66 23 213 40 257 11
28 38 65 47 65 2 0 13 -5 24 -10z m74 -490 c-7 -75 -6 -80 13 -80 22 0 32 33
32 106 l0 44 43 0 c74 0 85 -7 101 -64 18 -60 46 -92 64 -74 8 8 6 21 -9 49
-22 44 -24 69 -6 69 47 0 347 -104 347 -120 0 -11 -155 -67 -260 -94 -150 -38
-272 -50 -464 -43 -213 7 -433 52 -588 120 l-52 23 74 26 c92 33 280 82 286
75 3 -3 0 -23 -7 -45 -6 -22 -9 -48 -5 -57 10 -28 34 0 52 61 14 50 18 54 52
59 20 4 49 9 64 11 l27 5 3 -78 c3 -65 6 -78 21 -81 15 -3 17 6 17 77 0 92 -7
87 124 90 l78 1 -7 -80z m-762 -120 c25 -11 89 -34 143 -50 403 -124 854 -107
1198 45 l55 24 5 -32 c6 -35 23 -270 61 -827 30 -437 63 -908 70 -1005 20
-272 24 -339 20 -343 -2 -3 -37 9 -77 25 -101 42 -299 98 -443 125 -104 19
-153 22 -365 22 -191 0 -266 -4 -340 -18 -169 -31 -352 -86 -485 -146 l-64
-29 5 52 c2 29 20 273 39 542 19 270 37 517 40 550 2 33 9 128 15 210 6 83 13
179 15 215 20 249 45 608 45 632 0 33 4 34 63 8z"/>
<path d="M2285 3528 c-11 -149 -9 -157 50 -180 117 -46 395 -109 395 -89 0 5
-24 12 -52 16 -97 13 -188 36 -298 73 l-85 29 3 99 c2 54 8 103 12 107 4 5 40
-3 80 -17 66 -24 295 -76 334 -76 9 0 16 4 16 8 0 4 -47 16 -104 25 -105 18
-293 71 -310 88 -26 24 -34 7 -41 -83z"/>
<path d="M3596 3593 c-68 -28 -54 -25 -211 -58 -140 -29 -154 -30 -169 -11 -8
10 -39 15 -111 17 -146 3 -145 3 -145 -26 0 -22 4 -25 40 -25 28 0 42 -5 49
-18 14 -26 -4 -42 -45 -42 -55 0 -86 -77 -51 -125 18 -24 37 -11 37 24 0 40
22 65 48 57 18 -6 22 -15 22 -54 0 -60 13 -81 37 -66 11 7 20 28 23 57 3 26
11 52 18 59 19 19 45 -2 53 -41 10 -48 24 -57 43 -30 15 22 16 23 16 3 0 -30
6 -32 58 -21 51 12 62 21 62 54 0 30 -13 36 -60 23 -29 -8 -40 -16 -40 -30 0
-26 13 -32 44 -20 28 10 35 30 11 30 -8 0 -15 -4 -15 -10 0 -5 -7 -10 -15 -10
-26 0 -16 18 17 29 23 8 34 8 39 0 13 -22 -3 -47 -33 -53 -56 -11 -59 -9 -56
31 2 30 8 39 28 44 l25 7 -27 1 c-15 1 -30 -4 -34 -10 -3 -6 -14 2 -25 20 -13
22 -29 32 -56 37 -48 8 -53 12 -47 28 5 14 51 25 138 32 67 6 216 39 310 70
43 14 80 24 81 22 2 -2 6 -48 10 -104 l7 -101 -63 -25 c-73 -29 -248 -74 -326
-84 -29 -4 -53 -11 -53 -15 0 -28 445 85 455 115 8 22 -10 239 -20 241 -5 2
-37 -8 -69 -22z"/>
<path d="M2772 3577 c-15 -17 -15 -27 -14 -173 2 -139 0 -136 91 -124 62 8 80
25 73 70 -5 34 -31 50 -81 50 -34 0 -44 9 -30 27 7 7 32 13 60 13 38 0 51 4
59 20 17 32 3 58 -34 65 -18 4 -39 6 -47 5 -29 -4 -39 1 -39 19 0 27 -24 45
-38 28z"/>
<path d="M2256 3093 c-4 -43 -8 -99 -11 -125 -4 -44 -2 -49 24 -62 40 -21 261
-84 321 -92 42 -5 53 -11 61 -30 9 -26 40 -32 56 -11 5 6 30 74 54 149 l44
138 43 0 c23 0 42 -3 42 -7 -1 -24 -40 -175 -56 -215 -22 -57 -11 -79 29 -61
31 15 50 57 78 176 32 134 44 129 89 -37 29 -107 39 -131 58 -139 26 -12 46 6
38 33 -22 77 -66 237 -66 243 0 4 22 7 49 7 l48 0 17 -67 c25 -99 64 -198 86
-218 24 -21 55 -16 55 10 0 15 8 21 30 23 50 5 154 32 269 69 l109 36 -7 66
c-3 36 -6 95 -6 130 0 56 -2 62 -17 56 -101 -42 -280 -86 -400 -100 -56 -6
-62 -5 -68 14 -8 25 -53 35 -134 29 -55 -4 -59 -3 -74 24 -22 38 -59 37 -86
-1 -20 -28 -24 -29 -86 -25 -60 4 -68 2 -92 -22 l-26 -26 -106 16 c-135 21
-244 47 -305 75 -27 11 -50 21 -51 21 -2 0 -6 -35 -9 -77z m115 18 c75 -25
254 -61 302 -61 55 0 58 -8 35 -85 -16 -51 -23 -64 -28 -50 -5 13 -22 23 -56
30 -47 10 -49 11 -52 48 -3 35 -1 37 20 33 78 -16 78 -16 78 -41 0 -27 -13
-31 -54 -15 -30 11 -35 29 -7 27 11 0 19 -5 18 -10 -1 -5 4 -12 11 -14 9 -4
13 1 10 13 -2 13 -13 20 -36 22 -26 3 -32 0 -32 -17 0 -25 6 -29 58 -37 l42
-7 0 37 c0 39 -13 46 -82 49 -32 2 -33 1 -36 -40 -3 -42 -3 -42 40 -53 24 -6
49 -13 56 -15 6 -3 12 -20 12 -40 0 -36 -1 -36 -32 -30 -62 12 -68 16 -68 41
0 26 13 30 55 14 27 -10 26 -30 -1 -30 -8 0 -13 4 -10 9 3 5 -1 12 -10 15 -11
4 -14 1 -12 -12 2 -11 13 -17 32 -17 58 0 40 44 -20 48 -34 2 -39 -1 -42 -21
-5 -32 12 -48 58 -56 22 -3 40 -11 40 -17 0 -20 -202 24 -322 71 l-73 28 4
103 c4 112 7 125 24 111 7 -5 42 -19 78 -31z m1323 -38 c3 -38 7 -86 8 -107
l3 -39 -80 -29 c-44 -16 -89 -30 -100 -32 -11 -2 -47 -11 -81 -20 -90 -23
-137 -28 -146 -13 -4 6 -8 28 -8 48 0 34 2 36 48 50 47 15 47 15 47 59 l0 45
-45 -3 c-25 -2 -51 -9 -58 -14 -16 -14 -7 -24 10 -11 7 6 30 13 51 16 l37 6 0
-38 c0 -37 -2 -39 -44 -50 -24 -6 -50 -13 -58 -16 -12 -5 -18 7 -27 51 -6 32
-9 59 -7 61 3 4 92 20 161 29 56 7 190 42 228 58 52 23 55 21 61 -51z"/>
<path d="M2338 2582 c-23 -5 -23 -24 2 -72 11 -22 20 -54 20 -72 0 -19 9 -50
19 -71 10 -20 17 -37 15 -37 -20 0 -56 30 -74 61 -27 49 -60 71 -97 67 -45 -5
-43 -41 4 -87 73 -70 93 -101 93 -142 0 -41 -24 -65 -54 -53 -26 10 -19 32 8
27 46 -9 45 60 -1 78 -44 16 -98 -34 -89 -82 3 -13 5 -27 5 -30 3 -21 44 -51
78 -54 35 -4 35 -4 7 4 -45 11 -54 20 -70 57 -19 44 -18 47 11 76 26 26 75 28
75 3 0 -8 -9 -10 -25 -7 -52 10 -75 -49 -33 -88 53 -49 128 -7 128 71 0 46 15
53 18 8 3 -39 -23 -93 -51 -108 -22 -12 -22 -12 2 -7 l23 5 -19 -22 c-11 -12
-39 -51 -62 -87 -31 -47 -55 -72 -87 -89 -33 -18 -44 -30 -44 -48 0 -35 38
-50 78 -29 39 20 83 62 106 102 23 39 52 57 78 48 16 -5 19 -12 14 -36 -3 -18
-2 -27 4 -23 14 9 12 49 -2 63 -7 7 -20 12 -30 12 -10 0 -18 4 -18 9 0 15 54
2 68 -16 16 -23 15 -58 -3 -73 -22 -18 -18 -30 8 -30 34 0 47 19 47 69 -1 51
-15 76 -51 89 -23 9 -23 10 18 30 23 12 51 36 64 53 l23 32 21 -44 c11 -24 18
-46 15 -49 -41 -33 -52 -113 -22 -150 18 -22 76 -31 101 -15 20 12 12 45 -14
55 -33 13 -32 42 3 78 22 23 41 31 100 40 67 11 73 11 92 -8 26 -26 25 -32 -5
-60 -36 -33 -32 -84 6 -88 22 -3 33 6 63 48 30 42 41 50 59 45 44 -12 66 -28
83 -61 31 -57 84 -57 84 -1 0 23 -11 41 -43 72 l-44 41 38 22 37 22 44 -20
c24 -11 50 -20 58 -19 8 0 -7 9 -35 21 -58 25 -60 26 -53 33 3 3 31 -4 62 -16
38 -15 55 -27 52 -36 -3 -7 0 -13 7 -13 15 0 67 -64 67 -82 0 -7 -14 -21 -31
-31 -35 -20 -34 -36 4 -55 79 -38 143 73 83 145 l-23 28 22 44 23 44 16 -30
c9 -19 33 -39 63 -53 l47 -22 -32 -14 c-33 -13 -52 -46 -49 -83 2 -27 10 -18
13 16 4 33 37 63 71 63 32 0 21 15 -29 41 -49 25 -88 65 -88 91 0 11 -5 16
-10 13 -18 -11 12 49 36 72 13 11 42 24 66 28 62 11 95 30 123 74 25 40 60 71
81 71 11 0 -25 -43 -91 -112 -14 -15 -39 -29 -56 -32 -16 -3 -41 -8 -56 -11
-43 -9 -74 -40 -75 -74 -1 -43 25 -77 81 -105 45 -24 111 -86 111 -106 0 -5
25 -39 55 -75 31 -36 50 -65 44 -65 -18 0 -95 84 -118 127 -35 66 -34 65 -73
49 -20 -9 -38 -23 -42 -31 -9 -25 -7 -73 3 -79 5 -4 7 11 4 33 -4 31 -1 41 17
54 21 14 55 13 65 -3 3 -5 -4 -6 -15 -3 -29 8 -50 -15 -50 -54 0 -40 -26 -56
-46 -28 -8 10 -14 14 -14 9 0 -29 63 -48 73 -21 2 6 2 26 0 43 -4 22 -1 33 11
37 23 9 62 -11 74 -37 32 -71 126 -137 168 -117 37 17 30 47 -18 77 -49 30
-80 64 -107 115 -11 19 -27 41 -35 48 -26 21 -18 32 17 26 52 -9 90 7 109 46
27 56 0 120 -51 118 -22 -2 -23 -2 -5 -6 51 -10 72 -70 41 -117 -33 -50 -123
-41 -152 15 -17 32 -20 99 -5 99 6 0 10 -17 10 -38 0 -66 48 -109 101 -90 35
12 52 50 37 83 -10 22 -17 25 -50 23 -33 -2 -38 -5 -36 -22 2 -16 10 -21 31
-21 29 1 32 -2 18 -24 -8 -12 -14 -13 -35 -3 -21 10 -26 18 -26 50 0 31 9 50
42 91 23 28 52 58 65 66 32 21 31 63 -1 71 -42 10 -58 1 -105 -60 -25 -32 -56
-62 -69 -67 l-22 -8 20 27 c10 15 24 55 29 89 5 34 17 73 26 86 21 32 10 57
-25 57 -22 0 -60 -21 -60 -33 0 -1 -4 -17 -9 -35 -6 -20 -6 -32 0 -32 5 0 9
11 9 24 0 39 31 69 62 61 27 -7 27 -8 12 -36 -8 -16 -19 -55 -25 -87 -13 -72
-32 -102 -64 -102 -18 0 -23 4 -19 15 4 8 12 15 20 15 24 0 44 43 44 95 0 30
6 60 16 73 8 12 11 22 5 22 -17 0 -31 -36 -31 -82 0 -52 -9 -88 -21 -88 -5 0
-7 12 -4 28 2 15 1 32 -3 38 -12 19 -84 64 -101 64 -10 0 -21 13 -26 33 -8 25
-16 33 -37 35 -30 4 -32 -2 -28 -61 2 -39 -23 -55 -76 -49 -34 3 -56 -1 -98
-23 -46 -23 -57 -25 -77 -14 -53 28 -53 34 -5 96 25 31 43 60 39 63 -3 3 -10
-4 -17 -15 -6 -11 -42 -52 -81 -92 -79 -80 -182 -142 -281 -167 -73 -19 -74
-19 -74 -6 0 6 8 10 18 10 9 0 24 5 32 10 11 8 8 9 -11 4 -15 -3 -30 -1 -33 5
-4 6 5 13 21 16 53 12 70 23 26 18 -38 -5 -43 -3 -43 15 0 13 8 22 23 25 12 2
7 3 -11 1 -19 -2 -55 -17 -81 -33 -47 -30 -65 -36 -109 -33 -32 3 -60 62 -44
97 14 30 68 65 100 65 29 0 92 -29 92 -41 0 -5 -13 -3 -30 6 -45 23 -97 19
-125 -10 -29 -28 -31 -51 -9 -83 21 -30 35 -28 122 15 88 43 159 50 189 19 17
-18 17 -19 -2 -11 -11 4 -29 9 -40 12 -17 4 -17 2 3 -9 12 -8 19 -17 16 -21
-17 -17 23 -5 83 24 43 22 83 53 124 97 33 35 58 67 55 70 -3 3 -15 -7 -27
-22 l-21 -27 -26 23 -26 23 17 -27 c29 -47 18 -55 -18 -13 -40 46 -47 38 -10
-11 14 -18 21 -35 17 -38 -8 -5 -43 34 -69 79 -9 14 -12 16 -13 5 0 -9 13 -31
30 -50 36 -43 37 -53 5 -74 -32 -21 -37 -20 -82 10 -30 20 -48 25 -88 23 -73
-3 -89 8 -87 66 2 45 1 46 -25 43 -20 -2 -32 -12 -42 -35 -9 -19 -24 -34 -39
-38 -14 -3 -38 -15 -54 -26 l-28 -20 0 29 c0 51 -47 94 -92 84z m1107 -96 c60
-26 76 -98 29 -135 -36 -29 -50 -27 -119 16 -48 29 -70 37 -110 38 -27 0 -60
-4 -72 -8 -15 -5 -23 -4 -23 2 0 6 17 15 39 22 44 13 108 -3 184 -47 49 -28
79 -30 97 -9 20 25 14 73 -12 95 -24 20 -102 28 -112 11 -4 -5 11 -7 34 -4 55
8 90 -16 90 -62 0 -53 -28 -55 -118 -9 -87 45 -164 53 -199 22 -22 -20 -33
-23 -33 -8 0 5 19 19 42 31 57 29 112 22 189 -26 63 -39 85 -41 103 -12 9 15
6 22 -14 38 -24 20 -48 21 -94 3 -15 -6 -17 -4 -11 6 6 10 4 12 -8 7 -25 -10
-20 8 6 21 52 25 67 26 112 8z m-394 -55 c39 -29 145 -74 202 -86 45 -9 32
-27 -15 -21 -31 4 -37 3 -23 -3 11 -5 32 -10 48 -10 15 -1 27 -6 27 -12 0 -7
-15 -9 -42 -5 l-43 5 43 -12 c60 -17 70 -38 30 -62 -27 -16 -31 -16 -25 -2 8
21 -18 47 -48 47 -12 0 -33 9 -46 20 l-24 21 35 -6 c39 -6 39 -5 -67 41 -58
25 -123 71 -123 86 0 6 10 3 23 -6 42 -30 142 -84 167 -90 14 -4 -4 8 -40 26
-70 36 -130 77 -130 90 0 13 8 10 51 -21z m-765 -18 c19 -21 45 -51 59 -66 21
-24 31 -28 58 -23 24 5 27 4 12 -3 -19 -9 -19 -10 3 -10 12 -1 24 -1 27 -1 15
1 66 -33 75 -49 15 -30 12 -84 -8 -107 -9 -11 -39 -33 -67 -49 -57 -32 -69
-45 -128 -135 -23 -35 -57 -75 -76 -87 -43 -29 -63 -30 -27 -2 26 21 106 122
106 134 0 19 57 77 93 95 54 26 71 40 85 67 32 59 -2 107 -88 123 -51 10 -120
50 -120 71 0 5 -16 25 -35 44 -23 24 -29 35 -19 35 9 0 31 -17 50 -37z m-6
-46 c35 -47 45 -53 160 -88 85 -26 79 -100 -12 -149 -61 -33 -95 -66 -120
-115 -25 -48 -134 -159 -148 -150 -21 13 -9 34 33 57 28 15 57 45 87 90 58 87
85 115 131 135 54 24 79 92 42 112 -10 5 -45 14 -77 21 -45 9 -66 20 -88 44
-15 17 -41 45 -58 62 -16 16 -30 36 -30 43 0 22 40 -10 80 -62z m1421 3 c-23
-22 -41 -45 -41 -50 0 -14 -98 -60 -128 -60 -37 0 -62 -18 -62 -46 0 -39 17
-63 58 -79 47 -20 76 -47 109 -104 35 -60 76 -104 119 -127 41 -22 41 -46 -1
-49 -16 -2 -25 -1 -18 2 8 3 -7 24 -37 55 -26 29 -54 63 -61 77 -27 53 -61 91
-107 117 -69 40 -92 64 -92 96 0 40 30 64 96 78 53 11 65 19 128 84 41 43 70
66 73 58 3 -7 -14 -30 -36 -52z m-686 14 c30 -20 55 -40 56 -43 5 -39 4 -51
-5 -52 -6 0 -2 -4 9 -9 15 -6 9 -9 -25 -9 -37 0 -41 2 -22 9 33 14 27 19 -12
10 -19 -4 -37 -5 -40 -2 -4 3 -6 1 -6 -5 0 -6 19 -18 43 -27 23 -9 51 -23 61
-31 36 -27 11 -24 -48 5 -58 29 -126 39 -153 22 -6 -4 -16 -20 -22 -35 -12
-31 -31 -36 -31 -8 0 26 38 71 60 71 10 0 22 5 25 10 8 12 3 13 -29 1 -24 -10
-24 -9 -19 27 3 20 11 40 17 44 6 4 27 18 46 32 19 14 36 25 38 26 1 0 27 -16
57 -36z"/>
<path d="M4217 3376 c-12 -18 -34 -28 -83 -39 -64 -15 -105 -39 -91 -53 13
-13 85 -4 142 17 l57 21 55 -21 c57 -22 143 -28 143 -11 0 16 -41 37 -98 50
-36 8 -58 20 -69 36 -20 30 -37 30 -56 0z"/>
<path d="M1546 3383 c-14 -15 -5 -43 14 -43 11 0 23 -6 26 -14 3 -7 -4 -128
-16 -267 -22 -261 -21 -303 5 -293 26 10 34 72 45 318 6 132 12 242 15 244 2
3 11 2 20 -1 17 -7 17 -2 6 -316 -5 -123 -6 -232 -4 -242 7 -24 28 -25 39 -1
10 21 18 492 9 538 -4 26 -14 36 -48 52 -47 22 -101 34 -111 25z"/>
<path d="M1810 3369 c-29 -10 -54 -20 -55 -21 -17 -22 -19 -77 -15 -314 4
-201 8 -278 17 -281 29 -10 33 35 23 294 -9 237 -9 259 7 270 12 10 19 10 24
2 4 -6 10 -118 14 -248 8 -284 18 -340 55 -296 9 11 11 40 6 108 -11 151 -26
359 -30 405 -3 38 -1 44 20 52 13 5 24 16 24 24 0 23 -34 25 -90 5z"/>
<path d="M4116 3219 c-52 -41 -23 -118 47 -123 51 -4 56 -13 25 -39 -53 -45
-84 -124 -94 -243 -5 -52 -3 -73 6 -79 18 -11 28 11 36 75 8 64 50 206 64 215
6 4 10 -44 10 -127 0 -137 6 -165 34 -155 13 5 16 26 17 129 0 68 4 132 9 143
7 17 11 14 29 -27 20 -43 31 -90 46 -192 7 -47 12 -56 32 -56 14 0 15 11 10
78 -9 115 -32 180 -78 224 -21 21 -39 41 -39 45 0 4 19 9 42 10 71 2 104 72
58 121 -19 20 -31 22 -124 22 -89 0 -107 -3 -130 -21z"/>
<path d="M4363 4785 l-113 -123 37 -32 37 -33 63 69 c34 38 63 65 63 59 0 -5
-7 -50 -15 -100 -8 -49 -15 -95 -15 -102 0 -12 59 -73 71 -73 4 0 56 56 117
124 l110 123 -35 31 -36 31 -63 -67 c-59 -63 -63 -65 -59 -37 3 17 10 65 16
109 l11 78 -33 34 c-18 19 -35 34 -38 33 -4 0 -57 -56 -118 -124z"/>
<path d="M1296 4741 c-33 -35 -31 -41 42 -106 29 -26 51 -50 48 -52 -2 -3 -51
3 -107 12 l-103 16 -35 -35 -36 -36 80 -72 c43 -40 99 -92 124 -115 l46 -42
34 33 33 34 -68 66 c-41 40 -61 65 -49 62 11 -2 62 -10 113 -17 l94 -13 29 33
c16 19 29 36 28 40 -1 7 -227 214 -238 219 -4 1 -20 -11 -35 -27z"/>
<path d="M4698 4449 l-128 -100 32 -40 c35 -44 24 -47 125 31 104 80 163 132
163 144 -1 13 -46 66 -57 66 -4 0 -65 -46 -135 -101z"/>
<path d="M4973 4346 c-4 -8 -22 -29 -38 -48 -17 -18 -64 -73 -104 -122 l-75
-89 25 -46 c29 -55 25 -55 242 -21 l147 22 -25 42 c-29 48 -40 50 -177 18 -49
-11 -88 -17 -88 -13 0 8 46 60 117 132 l45 46 -21 41 c-24 48 -37 58 -48 38z"/>
<path d="M874 4136 c-36 -16 -65 -60 -89 -133 -14 -43 -15 -58 -5 -90 22 -68
81 -113 166 -127 80 -14 144 36 178 137 17 50 21 114 8 133 -7 12 -105 64
-120 64 -9 0 -72 -121 -72 -138 0 -4 14 -13 31 -19 29 -11 31 -10 41 18 13 37
42 35 46 -3 5 -40 -23 -85 -57 -93 -31 -7 -92 14 -123 42 -36 33 -10 123 36
123 11 0 36 66 36 94 0 11 -44 5 -76 -8z"/>
<path d="M5053 3848 l-151 -50 12 -36 c7 -21 25 -75 40 -122 35 -113 35 -113
74 -99 18 6 32 13 32 15 0 3 -12 41 -26 85 -15 44 -24 82 -22 85 3 3 18 6 34
7 26 2 29 -2 52 -71 22 -65 26 -72 46 -66 39 12 41 21 17 95 -19 59 -21 73 -9
80 27 18 38 7 58 -58 28 -93 32 -98 66 -86 16 6 29 16 28 24 -2 34 -79 249
-89 248 -5 0 -78 -23 -162 -51z"/>
<path d="M660 3659 c-14 -50 -11 -53 75 -69 83 -16 94 -24 53 -40 -18 -7 -46
-19 -63 -26 -16 -7 -46 -19 -66 -27 -30 -12 -38 -22 -47 -58 -6 -24 -8 -47 -4
-50 9 -8 322 -73 326 -68 2 2 6 23 10 46 6 42 6 42 -31 52 -21 6 -47 11 -58
11 -11 1 -33 6 -49 13 -27 12 -26 13 72 51 l100 39 12 45 c6 24 9 47 6 50 -6
5 -293 71 -313 72 -7 0 -17 -19 -23 -41z"/>
<path d="M5200 3445 c-52 -8 -114 -15 -137 -16 l-43 -3 0 -48 c0 -58 7 -62 83
-50 55 9 57 8 57 -13 0 -16 -18 -34 -60 -64 l-60 -43 6 -51 c4 -29 8 -54 10
-56 9 -10 105 64 122 96 9 15 13 13 37 -15 36 -42 93 -45 132 -6 25 25 26 28
19 123 -3 54 -9 112 -12 130 -8 36 -7 36 -154 16z"/>
<path d="M586 3194 c-9 -23 -7 -82 2 -88 4 -2 81 -8 170 -12 l162 -7 0 51 0
50 -127 6 c-71 4 -144 9 -164 11 -27 4 -38 1 -43 -11z"/>
<path d="M5102 3005 c-21 -9 -38 -26 -46 -47 -52 -128 -7 -243 96 -243 50 0
79 32 109 123 16 47 25 62 37 60 27 -5 28 -58 2 -78 -13 -10 -23 -32 -27 -58
-5 -38 -4 -42 16 -42 56 0 89 46 92 132 3 69 -13 109 -52 132 -24 14 -36 16
-60 7 -43 -15 -56 -32 -87 -108 -27 -66 -43 -80 -69 -60 -30 22 -2 97 35 97 8
0 12 18 12 50 0 55 -5 58 -58 35z"/>
<path d="M705 2944 c-22 -2 -60 -7 -84 -10 l-43 -6 5 -44 c2 -25 7 -47 10 -50
3 -3 58 0 122 6 102 10 120 10 133 -3 18 -19 9 -47 -19 -54 -17 -5 -20 -11
-15 -36 3 -16 6 -36 6 -43 0 -26 50 -15 82 16 29 29 30 34 26 100 -3 60 -8 74
-31 97 -22 23 -36 27 -89 29 -35 1 -81 0 -103 -2z"/>
<path d="M5004 2606 c-2 -6 -7 -30 -12 -52 l-9 -42 36 -5 c20 -3 92 -19 161
-36 69 -16 129 -26 133 -22 4 4 9 27 10 51 l2 43 -158 37 c-105 24 -160 33
-163 26z"/>
<path d="M781 2553 l-143 -35 6 -42 c4 -22 11 -45 16 -50 7 -7 298 56 321 70
4 2 2 24 -4 49 -13 55 -5 54 -196 8z"/>
<path d="M983 2377 c-18 -6 -33 -14 -33 -18 0 -5 14 -43 30 -85 17 -42 29 -78
28 -79 -17 -14 -52 -25 -58 -18 -5 4 -20 35 -33 68 -23 54 -29 60 -53 58 -14
-1 -29 -4 -32 -7 -2 -3 9 -39 26 -80 l30 -75 -26 -9 c-26 -8 -28 -6 -59 67
-27 66 -34 76 -54 73 -45 -5 -44 -18 6 -144 27 -68 50 -125 51 -126 3 -5 314
119 314 125 0 4 -62 157 -84 208 -8 17 -15 35 -17 41 -3 7 -14 7 -36 1z"/>
<path d="M4909 2294 c-5 -13 -13 -35 -18 -48 -9 -23 -6 -25 109 -71 l119 -47
-20 -50 -19 -49 36 -15 c20 -8 38 -13 40 -11 6 5 114 278 114 286 0 6 -58 31
-72 31 -2 0 -10 -18 -17 -41 -7 -22 -18 -42 -26 -45 -7 -3 -63 15 -125 39
l-111 45 -10 -24z"/>
<path d="M1075 1965 c-14 -15 -25 -37 -25 -53 0 -26 -3 -28 -34 -24 -28 3 -40
-2 -62 -23 -22 -22 -26 -33 -21 -63 6 -42 111 -208 131 -206 7 1 67 37 133 82
67 44 127 82 135 84 15 6 -63 128 -121 191 -44 47 -96 52 -136 12z"/>
<path d="M4716 1909 c-15 -22 -26 -42 -24 -43 2 -2 28 -19 59 -38 53 -34 58
-40 99 -137 24 -56 47 -104 51 -107 4 -2 20 15 34 40 l26 44 -26 57 c-14 32
-25 59 -25 61 0 2 29 4 65 4 l64 0 31 45 31 45 -124 0 -123 0 -50 35 c-27 19
-52 35 -55 35 -4 0 -19 -18 -33 -41z"/>
<path d="M2413 1048 c-11 -11 -45 -28 -74 -37 -51 -17 -54 -20 -57 -54 -3 -35
-3 -35 30 -28 18 5 42 11 54 15 l20 6 -19 -110 c-11 -61 -17 -113 -15 -115 2
-3 26 -6 53 -7 l49 -3 25 167 c13 93 22 170 20 172 -2 2 -18 6 -35 9 -23 4
-36 1 -51 -15z"/>
<path d="M3517 1057 c-46 -14 -83 -48 -89 -82 -7 -32 -3 -35 48 -35 38 0 43 3
53 30 18 53 91 31 77 -23 -3 -13 -27 -44 -52 -68 -57 -54 -104 -125 -104 -157
0 -24 1 -24 63 -18 34 4 104 14 155 23 l92 16 -6 36 c-4 20 -8 37 -9 39 -2 2
-37 -3 -79 -11 -42 -8 -76 -13 -76 -11 0 3 22 26 48 53 58 59 77 98 68 145
-12 65 -94 92 -189 63z"/>
<path d="M2730 1020 c-19 -5 -44 -21 -56 -36 -76 -95 8 -221 122 -184 19 7 37
10 39 8 1 -1 -2 -19 -9 -38 -9 -29 -16 -36 -43 -38 -23 -2 -33 2 -37 15 -5 15
-14 17 -56 15 -55 -4 -57 -7 -34 -40 58 -84 231 -65 269 30 35 88 7 221 -53
252 -39 20 -98 27 -142 16z"/>
<path d="M3083 986 c-36 -33 -38 -37 -41 -111 -5 -95 9 -145 49 -179 26 -22
40 -26 92 -26 69 0 101 13 128 50 46 61 31 210 -26 267 -31 31 -38 33 -99 33
-61 0 -69 -2 -103 -34z m131 -48 c8 -13 17 -52 21 -88 7 -78 -8 -115 -45 -115
-16 0 -29 9 -37 25 -16 32 -17 172 -1 188 19 19 46 14 62 -10z"/>
</g>
</svg>
