<?xml version="1.0" standalone="no"?>
<!DOCTYPE svg PUBLIC "-//W3C//DTD SVG 20010904//EN"
 "http://www.w3.org/TR/2001/REC-SVG-20010904/DTD/svg10.dtd">
<svg version="1.0" xmlns="http://www.w3.org/2000/svg"
 width="300.000000pt" height="261.000000pt" viewBox="0 0 300.000000 261.000000"
 preserveAspectRatio="xMidYMid meet">
<metadata>
Created by potrace 1.10, written by Peter Selinger 2001-2011
</metadata>
<g transform="translate(0.000000,261.000000) scale(0.100000,-0.100000)"
fill="#000000" stroke="none">
<path d="M1355 2593 c-317 -43 -552 -154 -761 -358 -181 -176 -297 -380 -356
-628 -19 -79 -22 -120 -22 -292 0 -192 1 -205 31 -315 36 -135 109 -297 185
-407 130 -190 348 -365 566 -453 169 -68 264 -88 444 -95 482 -17 925 235
1166 665 120 213 175 516 143 776 -34 273 -163 535 -361 734 -243 244 -560
376 -905 377 -55 0 -113 -1 -130 -4z m250 -28 c119 -10 292 -58 410 -114 346
-163 585 -456 686 -841 29 -110 37 -372 15 -500 -109 -627 -660 -1068 -1296
-1037 -311 16 -596 142 -816 361 -265 266 -402 642 -365 999 31 290 146 543
340 749 196 209 481 349 776 382 106 12 125 12 250 1z"/>
<path d="M1290 2535 c-209 -35 -403 -120 -567 -246 -75 -59 -203 -196 -256
-276 -200 -302 -260 -651 -172 -998 111 -437 469 -787 908 -889 162 -38 377
-40 533 -6 237 52 461 176 627 349 632 657 362 1738 -506 2022 -171 56 -395
73 -567 44z m324 -15 c490 -56 890 -397 1025 -871 45 -161 58 -298 41 -449
-70 -622 -582 -1080 -1206 -1080 -233 0 -477 77 -677 212 -79 54 -215 185
-278 268 -65 84 -162 281 -193 391 -67 235 -61 488 18 722 177 526 718 870
1270 807z"/>
<path d="M1233 2408 c-6 -7 -21 -33 -33 -58 -13 -25 -27 -48 -32 -51 -7 -4 -6
-9 1 -13 6 -4 16 2 23 14 13 20 28 27 28 11 0 -4 -11 -20 -26 -36 -28 -31 -24
-46 8 -26 19 12 20 11 13 -6 -19 -45 -19 -57 -1 -50 10 4 24 7 32 7 10 0 14
13 14 45 0 25 -5 45 -10 45 -7 0 -7 6 0 19 14 26 13 31 -6 31 -13 0 -13 4 3
30 12 21 14 33 7 40 -8 8 -14 7 -21 -2z"/>
<path d="M1293 2390 c-9 -24 -9 -30 0 -27 8 2 16 -21 23 -69 7 -40 19 -87 27
-103 15 -31 15 -31 -11 -31 -65 0 -214 -56 -314 -116 -79 -48 -199 -162 -251
-238 -54 -80 -111 -206 -133 -296 -26 -103 -26 -307 0 -405 21 -82 81 -214
126 -280 34 -49 151 -178 156 -172 2 2 -19 28 -48 58 -321 341 -320 863 2
1189 127 128 268 205 443 241 116 24 207 24 322 0 181 -37 320 -113 450 -245
128 -130 201 -278 231 -468 42 -260 -53 -536 -253 -742 l-48 -49 43 35 c106
88 209 255 254 413 20 68 23 102 22 230 0 134 -3 160 -28 240 -112 370 -441
615 -828 618 -60 0 -108 2 -108 3 0 1 -7 30 -16 64 -9 35 -17 88 -18 119 -3
65 -24 81 -43 31z"/>
<path d="M1690 2388 c0 -49 -11 -68 -39 -68 -32 0 -56 -14 -47 -28 3 -6 2 -13
-4 -17 -5 -3 -10 -15 -10 -27 0 -15 5 -19 20 -15 10 3 24 -1 31 -9 22 -26 36
-15 42 33 3 32 12 53 27 65 33 27 37 14 6 -22 -30 -37 -31 -43 -11 -60 13 -10
13 -15 3 -21 -18 -11 -6 -19 20 -12 27 7 29 23 2 30 -31 8 -24 39 15 69 39 30
37 48 -6 42 -31 -5 -34 -1 -19 22 5 9 5 19 -2 27 -16 20 -28 16 -28 -9z m-26
-122 c-6 -25 -24 -37 -24 -15 0 15 21 52 26 46 3 -3 2 -16 -2 -31z"/>
<path d="M1271 2311 c-8 -14 -7 -20 3 -24 18 -7 26 1 26 25 0 24 -17 23 -29
-1z"/>
<path d="M2068 2240 c-16 -28 -20 -30 -67 -26 -53 5 -65 -1 -52 -23 7 -10 13
-10 29 -2 26 14 52 14 52 1 0 -5 -7 -10 -15 -10 -8 0 -15 -4 -15 -9 0 -5 -12
-11 -26 -13 -28 -3 -54 -32 -41 -44 4 -4 17 2 30 14 16 15 36 22 65 22 23 0
42 5 42 10 0 6 -5 10 -12 10 -6 0 -9 3 -6 6 4 3 15 1 25 -4 10 -6 34 -7 52 -3
32 6 33 7 17 24 -10 9 -26 17 -37 17 -21 0 -26 15 -8 26 6 3 16 1 22 -5 15
-15 27 -14 27 4 0 13 -37 35 -58 35 -4 0 -15 -14 -24 -30z m42 -49 c0 -5 -9
-7 -20 -4 -11 3 -20 7 -20 9 0 2 9 4 20 4 11 0 20 -4 20 -9z"/>
<path d="M850 2230 c0 -6 6 -13 14 -16 18 -7 32 -64 19 -73 -18 -11 -34 -49
-23 -56 5 -3 7 -12 4 -20 -3 -7 4 -18 15 -25 17 -9 22 -8 27 5 3 8 17 15 30
15 29 0 30 16 4 50 -21 27 -27 75 -10 85 6 4 10 -7 10 -25 0 -41 16 -71 35
-64 10 4 15 0 15 -11 0 -14 3 -15 15 -5 8 7 15 19 15 27 0 12 -7 14 -30 10
-28 -6 -32 -3 -32 23 0 3 3 22 6 43 8 46 -12 51 -42 11 l-19 -27 -6 32 c-5 22
-12 31 -27 31 -11 0 -20 -5 -20 -10z m74 -136 c4 -9 4 -19 2 -21 -8 -8 -26 8
-26 23 0 19 16 18 24 -2z"/>
<path d="M2016 2129 c4 -7 0 -9 -12 -5 -24 7 -39 -3 -48 -30 -8 -26 9 -41 52
-50 41 -8 41 8 1 23 -29 11 -30 13 -15 29 9 9 20 14 23 11 9 -10 44 13 38 24
-4 5 -15 9 -26 9 -12 0 -17 -4 -13 -11z"/>
<path d="M1295 2111 c-244 -55 -437 -205 -553 -431 -54 -104 -80 -201 -89
-326 -7 -96 0 -134 25 -134 13 0 14 2 3 9 -27 17 -2 274 35 359 21 50 76 156
84 162 3 3 16 19 28 36 30 44 149 159 181 176 14 7 32 19 39 26 8 7 18 9 24 6
7 -4 8 -2 4 4 -4 7 3 14 19 18 14 3 25 9 25 13 0 5 19 14 43 21 23 8 47 17 52
21 6 4 26 8 45 10 19 2 41 7 48 13 23 17 259 17 332 1 120 -28 209 -68 312
-142 74 -54 148 -125 148 -144 0 -5 4 -9 9 -9 14 0 88 -122 102 -167 7 -24 16
-43 20 -43 10 0 23 -61 23 -112 1 -40 5 -45 23 -27 8 8 6 30 -8 80 -82 297
-326 522 -631 584 -100 20 -243 18 -343 -4z"/>
<path d="M1430 2049 c-36 -14 -40 -26 -40 -110 l0 -76 -36 -1 c-51 -2 -57 -12
-8 -12 22 0 45 -5 50 -10 7 -7 9 15 6 71 -6 111 4 129 73 129 28 0 56 -5 63
-12 8 -8 13 -51 14 -117 l1 -106 7 95 c7 93 2 131 -19 145 -19 11 -86 14 -111
4z"/>
<path d="M2340 2005 c-7 -8 -16 -13 -20 -10 -4 2 -15 -4 -24 -14 -17 -18 -16
-20 1 -29 10 -6 14 -14 10 -18 -4 -4 -13 -2 -19 4 -18 18 -27 14 -21 -8 3 -11
8 -20 12 -20 4 0 16 -7 27 -15 18 -14 16 -14 -16 -8 -19 3 -48 15 -63 26 -38
26 -46 15 -12 -19 21 -21 24 -29 14 -35 -9 -5 -18 -1 -25 13 -11 20 -11 20
-18 -7 -5 -20 -2 -33 8 -43 14 -14 18 -14 38 5 20 18 25 19 36 7 20 -22 35
-17 28 9 -5 23 -4 23 63 21 75 -3 92 8 66 43 -20 26 -18 31 10 25 20 -3 25 0
25 15 0 15 -8 20 -30 22 -71 4 -71 4 -65 28 6 26 -7 30 -25 8z m44 -88 c-4
-13 -2 -17 5 -13 6 4 11 3 11 -1 0 -5 -16 -9 -35 -10 -39 -1 -63 25 -43 45 7
7 8 12 3 12 -6 0 -4 4 4 9 22 14 63 -17 55 -42z"/>
<path d="M576 1981 c-7 -10 83 -100 119 -119 34 -17 45 -8 45 38 0 48 -17 61
-27 21 l-8 -30 -55 49 c-57 51 -65 56 -74 41z"/>
<path d="M1450 1905 l0 -85 28 0 28 0 3 85 2 85 -31 0 -30 0 0 -85z m40 -5 c0
-54 -3 -70 -14 -70 -12 0 -15 14 -15 62 1 65 4 78 20 78 5 0 9 -31 9 -70z"/>
<path d="M669 1954 c-12 -14 -11 -16 5 -13 11 2 21 10 24 17 5 17 -13 15 -29
-4z"/>
<path d="M563 1903 c-27 -10 -11 -30 37 -47 48 -17 71 -40 30 -29 -29 8 -25
-9 10 -42 28 -27 31 -28 47 -12 15 15 15 17 0 23 -24 9 -21 27 3 19 14 -4 20
-2 20 9 0 8 -10 18 -22 22 -12 3 -39 19 -61 35 -41 30 -44 31 -64 22z"/>
<path d="M1241 1816 c-55 -41 -65 -59 -67 -121 l-3 -50 10 54 c10 59 23 79 83
122 21 16 35 29 30 29 -5 0 -29 -15 -53 -34z"/>
<path d="M1318 1823 c7 -3 16 -2 19 1 4 3 -2 6 -13 5 -11 0 -14 -3 -6 -6z"/>
<path d="M1280 1813 c0 -5 -16 -19 -35 -32 -19 -13 -35 -27 -35 -32 0 -5 10 0
23 10 12 11 33 29 47 40 14 11 19 20 13 21 -7 0 -13 -3 -13 -7z"/>
<path d="M1600 1782 c19 -17 46 -33 60 -35 35 -7 38 1 4 9 -16 4 -38 14 -49
24 -11 9 -27 20 -35 24 -8 4 1 -6 20 -22z"/>
<path d="M1280 1779 c-22 -18 -22 -19 -3 -10 12 6 25 16 28 21 9 15 3 12 -25
-11z"/>
<path d="M1286 1748 c-27 -25 -34 -37 -26 -48 8 -12 10 -11 10 8 0 12 3 22 8
22 12 1 55 40 49 46 -3 3 -22 -9 -41 -28z"/>
<path d="M1354 1765 c21 -16 32 -13 21 4 -3 6 -14 11 -23 11 -15 -1 -15 -2 2
-15z"/>
<path d="M1406 1766 c3 -9 13 -16 22 -16 8 0 13 1 11 3 -2 1 -12 9 -22 16 -15
12 -17 12 -11 -3z"/>
<path d="M1515 1760 c-8 -14 3 -30 21 -30 8 0 14 5 14 10 0 6 -7 10 -16 10 -8
0 -12 5 -9 10 3 6 4 10 1 10 -3 0 -8 -4 -11 -10z"/>
<path d="M1600 1745 c13 -14 26 -25 28 -25 3 0 -5 11 -18 25 -13 14 -26 25
-28 25 -3 0 5 -11 18 -25z"/>
<path d="M1458 1743 c6 -2 18 -2 25 0 6 3 1 5 -13 5 -14 0 -19 -2 -12 -5z"/>
<path d="M1708 1709 c3 -21 7 -27 13 -18 4 7 3 21 -2 31 -14 25 -16 23 -11
-13z"/>
<path d="M1202 1700 c0 -14 2 -19 5 -12 2 6 2 18 0 25 -3 6 -5 1 -5 -13z"/>
<path d="M1541 1717 c2 -1 15 -11 29 -22 l25 -20 -19 23 c-11 12 -24 22 -29
22 -6 0 -8 -1 -6 -3z"/>
<path d="M1675 1710 c3 -5 8 -10 11 -10 2 0 4 5 4 10 0 6 -5 10 -11 10 -5 0
-7 -4 -4 -10z"/>
<path d="M2510 1684 c0 -16 -9 -19 -48 -22 -26 -1 -64 -5 -84 -8 -42 -6 -67
-29 -51 -45 7 -7 25 -4 58 11 30 14 58 20 75 16 15 -2 32 0 38 6 5 5 16 8 24
5 9 -4 5 -8 -9 -12 -13 -4 -23 -11 -23 -17 0 -5 -9 -4 -21 2 -22 12 -49 7 -49
-9 0 -5 12 -11 27 -13 14 -2 28 -9 31 -16 2 -7 -2 -10 -12 -6 -17 7 -22 -11
-6 -21 6 -3 10 -12 10 -18 0 -7 -14 4 -30 23 -23 27 -32 32 -39 21 -6 -9 -11
-10 -15 -2 -9 14 -46 14 -46 0 0 -5 14 -15 32 -21 30 -11 30 -12 10 -19 -16
-6 -22 -17 -22 -40 0 -30 27 -89 41 -89 12 0 29 59 18 65 -5 4 -9 3 -9 -2 0
-4 -6 1 -12 11 -9 15 -7 22 7 32 13 10 22 11 31 3 16 -13 56 10 49 28 -7 21 6
15 27 -12 19 -24 48 -34 48 -16 0 12 -25 32 -33 26 -4 -3 -5 -2 -2 2 3 3 -2
15 -12 25 -15 17 -15 19 1 37 15 16 23 18 44 10 27 -10 46 -1 34 17 -4 5 -24
23 -44 38 -34 25 -38 26 -38 10z"/>
<path d="M1516 1664 c-16 -41 34 -68 113 -63 22 2 42 1 44 -1 3 -3 8 -102 11
-220 6 -196 12 -374 21 -552 l3 -68 -43 0 -42 0 -21 118 c-24 137 -62 365 -62
375 0 4 -27 7 -59 7 l-59 0 -7 -52 c-6 -53 -31 -195 -61 -360 l-16 -88 -50 0
-50 0 6 83 c3 45 8 188 11 317 3 129 8 280 11 335 4 72 2 96 -5 85 -8 -12 -11
-8 -11 19 0 28 -2 32 -15 21 -8 -7 -14 -22 -13 -34 1 -11 -5 -204 -12 -429
-15 -479 -21 -447 91 -447 71 0 78 4 85 48 3 15 19 117 37 227 32 195 33 200
57 203 l25 3 37 -226 c20 -125 42 -233 49 -241 8 -9 32 -14 75 -14 87 0 88 2
80 209 -3 91 -9 236 -11 321 -8 235 -16 380 -22 396 -6 17 -153 21 -153 3 0
-6 -6 -9 -12 -6 -7 2 -12 14 -10 25 4 25 -13 30 -22 6z m120 -31 c-4 -5 -11
-8 -14 -8 -4 0 -13 -4 -19 -8 -9 -5 -13 -3 -13 7 0 11 9 16 27 16 14 0 23 -3
19 -7z m44 -3 c8 -5 12 -12 9 -15 -8 -8 -39 5 -39 16 0 11 11 11 30 -1z m27
-22 c-3 -8 -6 -5 -6 6 -1 11 2 17 5 13 3 -3 4 -12 1 -19z m-194 -377 c4 -1 7
-5 7 -10 0 -5 -8 -8 -17 -6 -10 1 -26 -2 -36 -7 -22 -12 -30 -6 -21 15 3 10
15 14 32 12 15 -2 30 -4 35 -4z"/>
<path d="M1426 1660 c-5 -12 -25 -14 -106 -12 -55 2 -100 0 -100 -5 0 -5 41
-7 90 -6 51 2 90 -1 90 -7 0 -5 -17 -8 -37 -6 -45 4 -93 -3 -93 -15 0 -4 32
-7 71 -5 75 3 104 19 97 52 -4 16 -6 16 -12 4z"/>
<path d="M364 1628 c-4 -6 -3 -13 2 -15 24 -8 36 -22 29 -32 -5 -8 -11 -9 -19
-2 -9 7 -16 7 -24 -1 -14 -14 -16 -42 -2 -33 11 7 47 -10 43 -19 -9 -20 0 -24
22 -10 22 14 25 14 25 1 0 -8 -6 -17 -12 -20 -21 -7 -1 -20 32 -21 30 -1 38
-10 20 -21 -14 -9 -3 -25 17 -25 13 0 14 8 9 43 -6 41 -5 41 9 17 15 -23 15
-23 10 -2 -4 14 -2 22 5 22 8 0 10 -11 6 -34 -5 -25 -3 -35 8 -39 21 -8 29 8
16 32 -16 30 -13 34 26 26 46 -8 43 15 -4 30 -20 6 -32 16 -32 26 0 21 -22 37
-28 21 -7 -23 -21 -12 -28 23 -3 19 -10 37 -14 40 -12 8 -19 -20 -9 -36 14
-22 11 -49 -6 -49 -8 0 -15 5 -15 10 0 6 4 10 9 10 5 0 4 14 -2 30 -14 36 -22
38 -32 8 -6 -23 -7 -22 -17 5 -10 28 -32 36 -44 15z m66 -59 c0 8 3 11 6 8 4
-4 1 -14 -6 -22 -10 -12 -15 -13 -21 -3 -4 6 -5 16 -2 21 3 5 9 3 14 -4 7 -12
9 -12 9 0z m86 -28 c11 9 14 9 14 -1 0 -6 -9 -14 -20 -17 -11 -3 -20 -9 -20
-14 0 -5 -4 -9 -10 -9 -5 0 -10 7 -10 16 0 8 5 12 10 9 6 -3 10 2 11 12 0 11
3 13 6 5 4 -10 8 -10 19 -1z"/>
<path d="M1173 1595 c0 -27 2 -38 4 -22 2 15 2 37 0 50 -2 12 -4 0 -4 -28z"/>
<path d="M2530 1581 c0 -15 39 -43 50 -36 20 12 6 38 -22 41 -16 1 -28 -1 -28
-5z"/>
<path d="M1622 1530 c0 -14 2 -19 5 -12 2 6 2 18 0 25 -3 6 -5 1 -5 -13z"/>
<path d="M1582 1503 c-6 -20 -7 -32 -2 -27 10 10 25 64 18 64 -3 0 -10 -16
-16 -37z"/>
<path d="M1166 1515 c-9 -26 -7 -32 5 -12 6 10 9 21 6 23 -2 3 -7 -2 -11 -11z"/>
<path d="M1131 1504 c0 -11 3 -14 6 -6 3 7 2 16 -1 19 -3 4 -6 -2 -5 -13z"/>
<path d="M1120 1464 c0 -11 -5 -25 -12 -32 -9 -9 -9 -12 0 -12 13 0 28 47 18
57 -3 4 -6 -3 -6 -13z"/>
<path d="M1151 1464 c0 -11 3 -14 6 -6 3 7 2 16 -1 19 -3 4 -6 -2 -5 -13z"/>
<path d="M1601 1454 c0 -11 3 -14 6 -6 3 7 2 16 -1 19 -3 4 -6 -2 -5 -13z"/>
<path d="M2278 1434 c-5 -4 -8 -18 -8 -30 0 -13 -4 -26 -10 -29 -5 -3 -10 -11
-10 -18 0 -6 7 -2 16 9 15 18 15 18 11 -8 -2 -15 0 -29 6 -31 5 -1 3 -9 -5
-17 -8 -8 -17 -24 -21 -35 -7 -20 -7 -20 8 -1 14 18 15 16 15 -30 0 -76 -35
-198 -86 -298 -24 -50 -51 -97 -59 -106 -7 -8 -37 -41 -66 -72 -28 -32 -47
-58 -42 -58 9 0 74 70 124 133 32 42 98 182 119 257 30 105 36 363 8 334z"/>
<path d="M1061 1389 c-13 -11 -22 -22 -19 -25 3 -2 16 4 29 15 13 11 22 22 19
24 -3 3 -16 -3 -29 -14z"/>
<path d="M1573 1375 c0 -22 2 -30 4 -17 2 12 2 30 0 40 -3 9 -5 -1 -4 -23z"/>
<path d="M2219 1363 l-24 -28 28 24 c25 23 32 31 24 31 -2 0 -14 -12 -28 -27z"/>
<path d="M978 1363 c7 -3 16 -2 19 1 4 3 -2 6 -13 5 -11 0 -14 -3 -6 -6z"/>
<path d="M1155 1359 c-4 -6 -5 -12 -2 -15 2 -3 7 2 10 11 7 17 1 20 -8 4z"/>
<path d="M968 1333 c6 -2 18 -2 25 0 6 3 1 5 -13 5 -14 0 -19 -2 -12 -5z"/>
<path d="M2177 1311 c-4 -17 -3 -21 5 -13 5 5 8 16 6 23 -3 8 -7 3 -11 -10z"/>
<path d="M2477 1314 c-4 -4 -19 -7 -34 -8 -27 -1 -28 -3 -31 -58 -2 -47 0 -57
15 -61 14 -4 13 -5 -4 -6 -13 0 -23 -6 -23 -11 0 -7 14 -8 38 -4 50 9 51 11
11 28 l-34 15 31 1 c23 0 33 5 37 20 3 11 1 20 -4 20 -5 0 -9 -7 -9 -15 0 -21
-18 -19 -23 3 -4 16 -5 16 -6 -1 -1 -21 -21 -13 -21 9 0 9 11 14 36 14 21 0
33 4 29 10 -4 6 -11 8 -16 5 -5 -4 -9 -2 -9 4 0 5 8 14 17 20 10 5 15 12 12
15 -3 3 -9 3 -12 0z m-32 -23 c3 -5 1 -12 -5 -16 -5 -3 -10 1 -10 9 0 18 6 21
15 7z"/>
<path d="M479 1303 l25 -5 -25 -19 c-22 -17 -22 -19 -5 -19 19 0 19 0 1 -14
-16 -12 -17 -16 -6 -30 7 -9 21 -16 30 -17 9 -1 5 -4 -9 -9 -19 -6 -21 -8 -6
-9 18 -1 18 -2 1 -21 -10 -11 -13 -20 -7 -20 6 0 13 4 17 10 6 10 35 3 35 -9
0 -4 -12 -12 -27 -19 l-28 -12 33 5 c24 3 32 1 30 -8 -3 -6 -14 -13 -26 -15
-12 -2 -22 -8 -22 -14 0 -5 7 -8 15 -4 9 3 15 0 15 -9 0 -8 -7 -15 -16 -15 -8
0 -13 -4 -10 -9 7 -11 76 9 76 22 0 5 -6 7 -14 4 -21 -8 -28 4 -11 17 13 9 13
19 3 64 -7 28 -17 52 -22 52 -4 0 -3 7 4 15 10 11 10 19 2 27 -6 6 -8 17 -5
24 4 10 0 13 -13 8 -18 -5 -18 -5 -1 9 26 21 21 27 -20 26 -27 -1 -31 -3 -14
-6z m39 -75 c-3 -7 -11 -13 -18 -13 -7 0 -15 6 -17 13 -3 7 4 12 17 12 13 0
20 -5 18 -12z m12 -54 c0 -8 -5 -12 -10 -9 -6 4 -8 11 -5 16 9 14 15 11 15 -7z"/>
<path d="M1010 1290 c0 -5 5 -10 11 -10 5 0 7 5 4 10 -3 6 -8 10 -11 10 -2 0
-4 -4 -4 -10z"/>
<path d="M1078 1293 c7 -3 16 -2 19 1 4 3 -2 6 -13 5 -11 0 -14 -3 -6 -6z"/>
<path d="M1636 1274 c-8 -21 -8 -39 1 -30 8 7 15 46 9 46 -2 0 -7 -7 -10 -16z"/>
<path d="M2116 1234 c-5 -14 -4 -15 9 -4 17 14 19 20 6 20 -5 0 -12 -7 -15
-16z"/>
<path d="M660 1200 c0 -32 31 -144 56 -203 33 -80 98 -177 165 -247 29 -30 46
-46 38 -35 -7 11 -18 25 -24 30 -91 87 -220 331 -201 380 3 8 2 15 -3 15 -5 0
-8 12 -8 26 0 14 -6 31 -12 37 -8 8 -11 7 -11 -3z"/>
<path d="M766 1195 c4 -8 11 -15 16 -15 6 0 5 6 -2 15 -7 8 -14 15 -16 15 -2
0 -1 -7 2 -15z"/>
<path d="M1014 1188 l-19 -23 23 19 c21 18 27 26 19 26 -2 0 -12 -10 -23 -22z"/>
<path d="M2187 1181 c-4 -17 -3 -21 5 -13 5 5 8 16 6 23 -3 8 -7 3 -11 -10z"/>
<path d="M935 1150 c-16 -7 -17 -9 -3 -9 9 -1 20 4 23 9 7 11 7 11 -20 0z"/>
<path d="M2418 1153 c-10 -2 -19 -12 -20 -21 -1 -9 -2 -24 -3 -32 -1 -8 -7
-25 -13 -37 -14 -25 -10 -28 38 -37 29 -6 33 -5 20 6 -20 17 -23 38 -6 38 7 0
20 7 27 16 11 14 10 19 -10 35 l-23 19 21 0 c12 0 19 5 16 10 -6 10 -17 11
-47 3z m27 -43 c3 -5 4 -14 0 -20 -8 -13 -35 -1 -35 16 0 16 26 19 35 4z m-35
-56 c0 -8 -5 -12 -10 -9 -6 4 -8 11 -5 16 9 14 15 11 15 -7z"/>
<path d="M1848 1013 c6 -2 18 -2 25 0 6 3 1 5 -13 5 -14 0 -19 -2 -12 -5z"/>
<path d="M533 1003 c-18 -7 -16 -42 3 -50 13 -5 13 -8 2 -15 -9 -7 -7 -8 10
-5 22 5 33 -18 11 -25 -7 -2 -7 -12 2 -30 6 -15 16 -25 22 -21 5 3 5 8 -2 13
-7 4 -1 11 16 18 25 11 26 11 10 -2 -15 -11 -15 -15 -3 -19 17 -7 31 22 17 36
-5 5 -17 4 -31 -3 -12 -6 -24 -9 -27 -6 -3 3 10 12 28 20 29 12 30 15 12 15
-23 1 -32 16 -12 23 7 2 7 12 0 31 -10 26 -29 32 -58 20z m40 -33 c-6 -24 -16
-25 -32 -6 -10 11 -8 16 6 24 23 13 32 7 26 -18z"/>
<path d="M2353 969 c-6 -6 -9 -18 -6 -25 3 -8 -1 -14 -8 -14 -18 -1 32 -29 51
-29 12 -1 12 1 2 8 -10 6 -8 10 8 14 21 5 26 39 5 37 -5 -1 -9 -8 -7 -16 2 -8
-4 -14 -12 -14 -19 0 -33 23 -18 28 13 4 16 22 4 22 -4 0 -13 -5 -19 -11z"/>
<path d="M2295 853 c-16 -32 -28 -61 -27 -65 7 -26 6 -31 -6 -35 -8 -3 -10 1
-5 14 6 16 5 16 -10 4 -23 -18 -21 -25 8 -41 19 -10 22 -16 13 -27 -9 -11 -14
-11 -32 5 -21 19 -21 19 -45 -4 -14 -13 -23 -25 -20 -26 2 -2 16 -13 30 -26
l26 -23 57 76 c51 68 61 95 36 95 -5 0 -7 -7 -4 -15 4 -9 0 -15 -9 -15 -20 0
-35 22 -19 28 7 2 12 10 12 18 0 17 12 18 27 3 6 -6 17 -9 25 -6 8 3 3 9 -14
17 -16 7 -28 17 -28 22 0 11 28 10 35 -2 3 -5 14 -10 23 -10 15 1 15 2 -2 15
-19 15 -19 15 2 15 12 0 22 5 22 10 0 6 -9 10 -19 10 -11 0 -23 5 -26 10 -12
19 -21 10 -50 -47z m55 33 c0 -3 -4 -8 -10 -11 -5 -3 -10 -1 -10 4 0 6 5 11
10 11 6 0 10 -2 10 -4z m-52 -138 c-2 -6 -10 -14 -16 -16 -7 -2 -10 2 -6 12 7
18 28 22 22 4z m-59 -85 c-10 -11 -15 -11 -30 3 -15 13 -16 20 -8 31 10 11 15
11 30 -3 15 -13 16 -20 8 -31z"/>
<path d="M2210 679 c0 -5 5 -7 10 -4 6 3 10 8 10 11 0 2 -4 4 -10 4 -5 0 -10
-5 -10 -11z"/>
<path d="M635 860 c-4 -6 -13 -9 -20 -6 -17 6 -39 -19 -30 -34 3 -5 13 -10 21
-10 11 0 14 -6 9 -22 -6 -21 -4 -21 19 5 29 31 34 52 11 43 -44 -18 -51 -18
-31 -2 10 8 24 17 30 19 6 2 8 7 5 11 -4 4 -10 2 -14 -4z"/>
<path d="M672 760 c-12 -10 -22 -24 -22 -32 0 -18 38 -50 45 -38 3 4 -1 10 -7
12 -8 3 -4 9 10 17 12 6 22 17 22 23 0 6 -8 4 -18 -5 -10 -10 -25 -17 -33 -17
-9 1 -4 10 13 25 33 28 24 42 -10 15z"/>
<path d="M714 718 c-4 -7 -9 -26 -11 -42 -3 -24 -1 -28 9 -18 6 6 13 17 14 24
1 7 5 21 9 31 8 19 -10 24 -21 5z"/>
<path d="M734 688 c-5 -8 -2 -9 12 -4 16 6 16 4 -4 -17 -31 -33 -28 -46 4 -16
l27 24 -18 -34 c-19 -37 -17 -38 40 -16 18 7 17 5 -4 -18 l-24 -26 24 -20 c27
-23 39 -26 39 -11 0 6 5 10 11 10 6 0 8 -7 5 -16 -6 -16 18 -47 46 -57 11 -4
23 1 33 16 17 24 20 41 5 32 -5 -3 -10 1 -10 11 0 12 -6 15 -21 11 -15 -4 -19
-2 -15 8 3 8 -11 25 -32 41 -20 16 -38 32 -40 36 -2 4 -12 3 -23 -2 -19 -11
-28 3 -9 15 5 3 2 14 -8 25 -19 23 -28 25 -38 8z m103 -86 c8 -5 8 -12 -3 -27
-14 -18 -15 -18 -32 -1 -16 17 -16 18 8 11 22 -7 23 -6 11 9 -14 16 -5 21 16
8z m33 -32 c0 -5 -4 -10 -10 -10 -5 0 -10 5 -10 10 0 6 5 10 10 10 6 0 10 -4
10 -10z m14 -36 c11 -28 6 -39 -9 -20 -8 11 -15 23 -15 28 0 14 18 9 24 -8z
m32 -21 c-4 -4 -11 -1 -16 7 -16 25 -11 35 7 17 9 -9 13 -20 9 -24z"/>
<path d="M955 680 c10 -11 20 -20 23 -20 3 0 -3 9 -13 20 -10 11 -20 20 -23
20 -3 0 3 -9 13 -20z"/>
<path d="M1976 675 c-11 -8 -15 -15 -9 -15 6 0 16 7 23 15 16 19 11 19 -14 0z"/>
<path d="M1338 636 c-22 -16 -23 -27 -3 -20 12 5 15 -3 15 -35 0 -23 5 -41 10
-41 6 0 10 25 10 55 0 58 -4 63 -32 41z"/>
<path d="M1411 636 c-18 -22 -9 -50 17 -54 12 -2 22 -8 22 -14 0 -6 -10 -8
-25 -4 -30 8 -34 -10 -5 -19 33 -10 51 13 48 59 -2 33 -7 42 -24 44 -11 2 -26
-4 -33 -12z m37 -23 c-4 -22 -22 -20 -26 1 -2 10 3 16 13 16 10 0 15 -7 13
-17z"/>
<path d="M1490 620 c0 -25 4 -29 23 -27 14 1 22 -3 22 -13 0 -11 -9 -14 -29
-12 -26 3 -28 1 -17 -12 28 -33 79 -7 66 34 -3 11 -15 20 -26 20 -10 0 -19 5
-19 10 0 6 11 10 25 10 14 0 25 5 25 10 0 6 -16 10 -35 10 -32 0 -35 -2 -35
-30z"/>
<path d="M1600 641 c0 -5 -8 -12 -17 -14 -17 -4 -17 -5 0 -6 13 -1 17 -10 17
-41 0 -22 5 -40 10 -40 6 0 10 25 10 55 0 30 -4 55 -10 55 -5 0 -10 -4 -10 -9z"/>
<path d="M2125 630 c-6 -10 22 -60 35 -60 19 0 31 29 20 49 -11 22 -44 28 -55
11z m42 -36 c-9 -10 -38 16 -31 28 4 6 13 4 22 -6 9 -8 13 -19 9 -22z"/>
<path d="M2108 600 c18 -21 15 -32 -7 -20 -11 5 -23 10 -27 10 -12 0 14 -23
28 -26 7 -1 21 -5 31 -9 26 -11 21 8 -10 36 -16 13 -22 17 -15 9z"/>
<path d="M2054 539 c8 -42 31 -67 24 -27 -4 24 -3 26 13 18 21 -12 37 6 20 23
-8 8 -11 8 -11 -2 0 -10 -7 -9 -26 4 l-27 17 7 -33z"/>
<path d="M2000 523 c0 -11 -6 -21 -12 -20 -34 1 -44 -6 -54 -38 -9 -29 -8 -37
4 -48 13 -10 15 -9 10 11 -5 19 -4 21 8 11 7 -6 21 -9 29 -5 17 6 21 36 5 36
-5 0 -10 -7 -10 -16 0 -14 -3 -14 -15 -4 -8 7 -15 18 -15 25 0 17 50 16 57 -1
10 -27 22 -13 16 19 -7 39 -23 60 -23 30z"/>
<path d="M950 512 c0 -10 -5 -23 -11 -29 -6 -6 -9 -17 -6 -25 3 -8 9 -3 17 15
7 15 20 27 28 27 11 0 13 -9 8 -42 -5 -39 -4 -41 8 -25 8 10 23 25 33 33 17
14 17 15 -4 9 -17 -5 -21 -3 -18 7 3 7 -8 20 -25 30 -28 16 -30 16 -30 0z"/>
<path d="M1915 470 c3 -5 8 -10 11 -10 2 0 4 5 4 10 0 6 -5 10 -11 10 -5 0 -7
-4 -4 -10z"/>
<path d="M1880 465 c0 -3 8 -18 17 -33 17 -26 17 -26 0 -13 -9 7 -17 9 -17 3
0 -14 27 -35 33 -25 6 11 3 46 -7 61 -7 12 -26 17 -26 7z"/>
<path d="M1054 424 c-9 -34 10 -53 36 -36 16 10 18 9 14 -3 -5 -12 -2 -12 20
-2 14 7 21 14 16 15 -6 2 -10 8 -10 13 0 4 7 6 15 3 8 -4 15 -2 15 4 0 14 -40
23 -40 9 0 -7 -5 -4 -11 6 -15 26 -48 21 -55 -9z m33 -21 c-16 -16 -17 -16
-17 3 0 26 11 37 24 24 7 -7 5 -16 -7 -27z"/>
<path d="M1847 444 c-4 -4 -7 -17 -7 -28 -1 -19 -2 -20 -14 -4 -12 16 -17 16
-89 -5 -76 -22 -99 -43 -57 -54 11 -3 20 -10 20 -15 0 -6 -7 -8 -15 -4 -8 3
-15 1 -15 -4 0 -6 9 -10 20 -10 13 0 20 7 20 20 0 13 -7 20 -20 20 -11 0 -20
5 -20 11 0 6 6 9 14 6 8 -3 17 -1 19 6 2 7 7 -3 11 -21 7 -28 11 -33 29 -28
12 3 25 6 30 6 4 0 7 10 7 22 0 20 1 21 20 3 11 -10 20 -13 20 -7 0 6 -4 14
-10 17 -5 3 -10 13 -10 22 0 13 5 12 25 -7 l25 -23 1 39 2 39 7 -35 c7 -34 11
-31 13 12 1 22 -14 34 -26 22z m-57 -44 c0 -5 -4 -10 -10 -10 -5 0 -10 5 -10
10 0 6 5 10 10 10 6 0 10 -4 10 -10z m-30 -9 c0 -5 3 -16 6 -25 4 -12 0 -16
-16 -16 -20 0 -21 2 -9 17 12 15 12 16 -3 10 -20 -7 -25 9 -5 16 19 8 27 8 27
-2z"/>
<path d="M1190 375 c0 -19 4 -35 9 -35 5 0 9 16 8 35 -3 46 -17 46 -17 0z"/>
<path d="M1216 385 c-3 -8 -1 -15 3 -15 5 0 11 7 15 15 3 8 1 15 -3 15 -5 0
-11 -7 -15 -15z"/>
<path d="M1251 389 c-1 -9 -8 -22 -16 -29 -8 -7 -15 -16 -15 -20 0 -15 33 -21
42 -8 8 10 11 10 15 1 10 -26 19 -12 15 22 -5 43 -16 45 -32 5 -7 -17 -15 -29
-17 -26 -3 2 1 14 7 26 6 11 9 26 6 33 -2 7 -5 5 -5 -4z"/>
<path d="M1305 373 c3 -8 5 -27 6 -41 1 -26 1 -25 10 6 5 17 14 32 20 32 6 0
9 -15 7 -32 -3 -29 0 -33 22 -36 24 -2 24 -2 6 13 -20 15 -20 15 0 15 19 1 19
1 0 15 -19 15 -19 15 2 15 18 0 22 -6 23 -32 0 -27 2 -30 9 -13 7 18 8 19 15
3 11 -28 23 -21 21 14 -2 36 0 35 -84 46 -53 7 -62 6 -57 -5z m125 -23 c0 -5
-4 -10 -10 -10 -5 0 -10 5 -10 10 0 6 5 10 10 10 6 0 10 -4 10 -10z"/>
<path d="M1637 363 c-4 -18 0 -33 9 -43 14 -13 15 -11 8 25 -8 50 -10 52 -17
18z"/>
<path d="M1543 345 c-18 -37 -38 -42 -38 -9 0 13 6 18 20 16 16 -3 17 -1 8 8
-19 21 -45 4 -41 -27 2 -20 9 -29 26 -31 12 -2 22 2 22 9 0 9 4 8 15 -1 33
-27 64 27 33 58 -19 19 -27 15 -45 -23z m42 -8 c0 -26 -20 -25 -23 2 -3 16 1
22 10 19 7 -3 13 -12 13 -21z"/>
<path d="M1604 364 c3 -9 6 -24 6 -35 0 -10 4 -19 8 -19 6 0 7 21 3 63 -1 4
-6 7 -12 7 -6 0 -8 -7 -5 -16z"/>
</g>
</svg>
